<?xml version="1.0" encoding="UTF-8"?>
<svg xmlns="http://www.w3.org/2000/svg" xmlns:xlink="http://www.w3.org/1999/xlink" width="200px" height="200px" viewBox="0 0 200 200" version="1.1">
<g id="surface1">
<path style=" stroke:none;fill-rule:nonzero;fill:rgb(52.156863%,75.686275%,30.588235%);fill-opacity:1;" d="M 197.894531 66.648438 L 167.925781 33.6875 C 166.394531 32 164.21875 31.035156 161.933594 31.035156 L 7.042969 31.035156 C 3.152344 31.035156 0 34.1875 0 38.074219 L 0 141.238281 C 0 145.125 3.152344 148.277344 7.042969 148.277344 L 17.242188 148.277344 C 17.242188 136.851562 26.503906 127.585938 37.929688 127.585938 C 49.359375 127.585938 58.621094 136.851562 58.621094 148.277344 L 141.378906 148.277344 C 141.378906 136.851562 150.640625 127.585938 162.070312 127.585938 C 173.496094 127.585938 182.757812 136.851562 182.757812 148.277344 L 192.960938 148.277344 C 196.847656 148.277344 200 145.125 200 141.238281 L 200 72.101562 C 200 70.082031 199.25 68.136719 197.894531 66.648438 "/>
<path style=" stroke:none;fill-rule:nonzero;fill:rgb(90.196078%,90.196078%,90.196078%);fill-opacity:1;" d="M 154.203125 86.207031 L 200 86.207031 L 200 72.097656 C 200 70.082031 199.246094 68.136719 197.890625 66.648438 L 178.058594 44.828125 L 154.203125 44.828125 C 152.832031 44.828125 151.722656 45.9375 151.722656 47.308594 L 151.722656 83.726562 C 151.722656 85.097656 152.832031 86.207031 154.203125 86.207031 "/>
<path style=" stroke:none;fill-rule:nonzero;fill:rgb(90.196078%,90.196078%,90.196078%);fill-opacity:1;" d="M 0 44.828125 L 0 86.207031 L 26.9375 86.207031 C 29.199219 86.207031 31.035156 84.371094 31.035156 82.109375 L 31.035156 48.925781 C 31.035156 46.664062 29.199219 44.828125 26.9375 44.828125 Z M 0 44.828125 "/>
<path style=" stroke:none;fill-rule:nonzero;fill:rgb(90.196078%,90.196078%,90.196078%);fill-opacity:1;" d="M 100 49.675781 L 100 81.359375 C 100 84.035156 102.171875 86.207031 104.847656 86.207031 L 129.636719 86.207031 C 132.3125 86.207031 134.484375 84.035156 134.484375 81.359375 L 134.484375 49.675781 C 134.484375 46.996094 132.3125 44.828125 129.636719 44.828125 L 104.847656 44.828125 C 102.171875 44.828125 100 46.996094 100 49.675781 "/>
<path style=" stroke:none;fill-rule:nonzero;fill:rgb(90.196078%,90.196078%,90.196078%);fill-opacity:1;" d="M 48.277344 49.675781 L 48.277344 81.359375 C 48.277344 84.035156 50.449219 86.207031 53.125 86.207031 L 77.910156 86.207031 C 80.585938 86.207031 82.757812 84.035156 82.757812 81.359375 L 82.757812 49.675781 C 82.757812 46.996094 80.585938 44.828125 77.910156 44.828125 L 53.125 44.828125 C 50.449219 44.828125 48.277344 46.996094 48.277344 49.675781 "/>
<path style=" stroke:none;fill-rule:nonzero;fill:rgb(35.686275%,35.686275%,35.686275%);fill-opacity:1;" d="M 182.757812 148.277344 C 182.757812 159.703125 173.496094 168.964844 162.070312 168.964844 C 150.640625 168.964844 141.378906 159.703125 141.378906 148.277344 C 141.378906 136.847656 150.640625 127.585938 162.070312 127.585938 C 173.496094 127.585938 182.757812 136.847656 182.757812 148.277344 "/>
<path style=" stroke:none;fill-rule:nonzero;fill:rgb(69.803922%,69.803922%,69.803922%);fill-opacity:1;" d="M 168.964844 148.277344 C 168.964844 152.085938 165.878906 155.171875 162.070312 155.171875 C 158.257812 155.171875 155.171875 152.085938 155.171875 148.277344 C 155.171875 144.464844 158.257812 141.378906 162.070312 141.378906 C 165.878906 141.378906 168.964844 144.464844 168.964844 148.277344 "/>
<path style=" stroke:none;fill-rule:nonzero;fill:rgb(35.686275%,35.686275%,35.686275%);fill-opacity:1;" d="M 58.621094 148.277344 C 58.621094 159.703125 49.359375 168.964844 37.929688 168.964844 C 26.503906 168.964844 17.242188 159.703125 17.242188 148.277344 C 17.242188 136.847656 26.503906 127.585938 37.929688 127.585938 C 49.359375 127.585938 58.621094 136.847656 58.621094 148.277344 "/>
<path style=" stroke:none;fill-rule:nonzero;fill:rgb(69.803922%,69.803922%,69.803922%);fill-opacity:1;" d="M 44.828125 148.277344 C 44.828125 152.085938 41.742188 155.171875 37.929688 155.171875 C 34.121094 155.171875 31.035156 152.085938 31.035156 148.277344 C 31.035156 144.464844 34.121094 141.378906 37.929688 141.378906 C 41.742188 141.378906 44.828125 144.464844 44.828125 148.277344 "/>
<path style=" stroke:none;fill-rule:nonzero;fill:rgb(41.568627%,65.098039%,17.254902%);fill-opacity:1;" d="M 200 106.898438 L 179.3125 106.898438 C 177.402344 106.898438 175.863281 108.4375 175.863281 110.34375 C 175.863281 112.253906 177.402344 113.792969 179.3125 113.792969 L 200 113.792969 Z M 200 106.898438 "/>
<path style=" stroke:none;fill-rule:nonzero;fill:rgb(41.568627%,65.098039%,17.254902%);fill-opacity:1;" d="M 110.34375 96.550781 L 0 96.550781 L 0 103.449219 L 110.34375 103.449219 C 112.25 103.449219 113.792969 101.90625 113.792969 100 C 113.792969 98.09375 112.25 96.550781 110.34375 96.550781 "/>
<path style=" stroke:none;fill-rule:nonzero;fill:rgb(41.568627%,65.098039%,17.254902%);fill-opacity:1;" d="M 124.136719 110.34375 L 0 110.34375 L 0 117.242188 L 124.136719 117.242188 C 126.042969 117.242188 127.585938 115.699219 127.585938 113.792969 C 127.585938 111.886719 126.042969 110.34375 124.136719 110.34375 "/>
</g>
</svg>
