<?xml version="1.0" encoding="UTF-8"?>
<svg xmlns="http://www.w3.org/2000/svg" xmlns:xlink="http://www.w3.org/1999/xlink" width="100px" height="100px" viewBox="0 0 100 100" version="1.1">
<g id="surface1">
<path style=" stroke:none;fill-rule:nonzero;fill:rgb(99.607843%,88.235294%,52.941176%);fill-opacity:1;" d="M 100 50 C 100 77.613281 77.613281 100 50 100 C 22.386719 100 0 77.613281 0 50 C 0 22.386719 22.386719 0 50 0 C 77.613281 0 100 22.386719 100 50 Z M 100 50 "/>
<path style=" stroke:none;fill-rule:nonzero;fill:rgb(100%,77.647059%,10.588235%);fill-opacity:1;" d="M 72.625 27.777344 L 69.160156 30.269531 L 61.109375 22.222656 L 40.234375 47.867188 L 40.738281 48.371094 L 20.621094 50 L 40.113281 69.488281 L 34.160156 74.199219 L 34.160156 70.425781 L 25 75 L 28.601562 78.601562 L 26.519531 80.25 L 46.121094 99.851562 C 47.398438 99.949219 48.695312 100 50 100 C 75.957031 100 97.289062 80.222656 99.757812 54.914062 Z M 72.625 27.777344 "/>
<path style=" stroke:none;fill-rule:nonzero;fill:rgb(15.294118%,14.509804%,14.509804%);fill-opacity:1;" d="M 35.351562 81.183594 L 28.183594 81.183594 C 27.105469 81.183594 26.230469 80.308594 26.230469 79.230469 L 26.230469 70.769531 C 26.230469 69.691406 27.105469 68.816406 28.183594 68.816406 L 35.351562 68.816406 C 36.433594 68.816406 37.308594 69.691406 37.308594 70.769531 L 37.308594 79.230469 C 37.304688 80.308594 36.429688 81.183594 35.351562 81.183594 Z M 35.351562 81.183594 "/>
<path style=" stroke:none;fill-rule:nonzero;fill:rgb(15.294118%,14.509804%,14.509804%);fill-opacity:1;" d="M 71.816406 81.183594 L 64.648438 81.183594 C 63.566406 81.183594 62.691406 80.308594 62.691406 79.230469 L 62.691406 70.769531 C 62.691406 69.691406 63.570312 68.816406 64.648438 68.816406 L 71.816406 68.816406 C 72.894531 68.816406 73.769531 69.691406 73.769531 70.769531 L 73.769531 79.230469 C 73.769531 80.308594 72.894531 81.183594 71.816406 81.183594 Z M 71.816406 81.183594 "/>
<path style=" stroke:none;fill-rule:nonzero;fill:rgb(78.823529%,18.431373%,0%);fill-opacity:1;" d="M 75 75 L 25 75 L 25 33.78125 C 25 28.933594 28.933594 25 33.78125 25 L 66.21875 25 C 71.066406 25 75 28.933594 75 33.78125 Z M 75 75 "/>
<path style=" stroke:none;fill-rule:nonzero;fill:rgb(57.647059%,0%,0%);fill-opacity:1;" d="M 75 33.78125 C 75 28.933594 71.066406 25 66.21875 25 L 49.886719 25 L 49.886719 75 L 75 75 Z M 75 33.78125 "/>
<path style=" stroke:none;fill-rule:nonzero;fill:rgb(100%,92.941176%,70.980392%);fill-opacity:1;" d="M 25 64.09375 L 34.105469 64.09375 C 37.316406 64.09375 39.921875 61.453125 39.921875 58.191406 L 39.921875 57.894531 L 25 57.894531 Z M 25 64.09375 "/>
<path style=" stroke:none;fill-rule:nonzero;fill:rgb(100%,77.647059%,10.588235%);fill-opacity:1;" d="M 75 64.09375 L 65.894531 64.09375 C 62.683594 64.09375 60.078125 61.453125 60.078125 58.191406 L 60.078125 57.894531 L 75 57.894531 Z M 75 64.09375 "/>
<path style=" stroke:none;fill-rule:nonzero;fill:rgb(15.294118%,23.137255%,47.843137%);fill-opacity:1;" d="M 25 68.054688 L 75 68.054688 L 75 75 L 25 75 Z M 25 68.054688 "/>
<path style=" stroke:none;fill-rule:nonzero;fill:rgb(7.058824%,6.666667%,28.627451%);fill-opacity:1;" d="M 49.890625 68.054688 L 75 68.054688 L 75 75 L 49.890625 75 Z M 49.890625 68.054688 "/>
<path style=" stroke:none;fill-rule:nonzero;fill:rgb(100%,100%,100%);fill-opacity:1;" d="M 27.777344 33.332031 L 72.222656 33.332031 L 72.222656 50 L 27.777344 50 Z M 27.777344 33.332031 "/>
<path style=" stroke:none;fill-rule:nonzero;fill:rgb(81.568627%,81.960784%,82.745098%);fill-opacity:1;" d="M 49.890625 33.332031 L 72.222656 33.332031 L 72.222656 50 L 49.890625 50 Z M 49.890625 33.332031 "/>
<path style=" stroke:none;fill-rule:nonzero;fill:rgb(15.294118%,23.137255%,47.843137%);fill-opacity:1;" d="M 38.890625 22.222656 L 61.109375 22.222656 L 61.109375 27.777344 L 38.890625 27.777344 Z M 38.890625 22.222656 "/>
<path style=" stroke:none;fill-rule:nonzero;fill:rgb(7.058824%,6.666667%,28.627451%);fill-opacity:1;" d="M 49.890625 22.222656 L 61.109375 22.222656 L 61.109375 27.777344 L 49.890625 27.777344 Z M 49.890625 22.222656 "/>
<path style=" stroke:none;fill-rule:nonzero;fill:rgb(87.843137%,56.862745%,7.058824%);fill-opacity:1;" d="M 20.621094 38.890625 L 26.179688 38.890625 L 26.179688 50 L 20.621094 50 Z M 20.621094 38.890625 "/>
<path style=" stroke:none;fill-rule:nonzero;fill:rgb(100%,32.941176%,9.803922%);fill-opacity:1;" d="M 73.820312 38.890625 L 79.375 38.890625 L 79.375 50 L 73.820312 50 Z M 73.820312 38.890625 "/>
</g>
</svg>
