<?xml version="1.0" encoding="iso-8859-1"?>
<!-- Uploaded to: SVG Repo, www.svgrepo.com, Generator: SVG Repo Mixer Tools -->
<svg version="1.1" id="Layer_1" xmlns="http://www.w3.org/2000/svg" xmlns:xlink="http://www.w3.org/1999/xlink" 
	 viewBox="0 0 512 512" xml:space="preserve">
<circle style="fill:#FEE187;" cx="256" cy="256" r="256"/>
<path style="fill:#FFC61B;" d="M371.834,142.222l-17.739,12.764l-41.207-41.208L206.007,245.082l2.57,2.57L105.589,256
	l99.787,99.787l-30.472,24.119v-19.323L128,384l18.439,18.439l-10.664,8.44l100.359,100.359C242.69,511.741,249.315,512,256,512
	c132.896,0,242.129-101.267,254.769-230.843L371.834,142.222z"/>
<g>
	<path style="fill:#272525;" d="M181.001,415.663H144.3c-5.529,0-10.009-4.482-10.009-10.009v-43.308
		c0-5.529,4.482-10.009,10.009-10.009h36.702c5.529,0,10.009,4.482,10.009,10.009v43.308
		C191.01,411.183,186.53,415.663,181.001,415.663z"/>
	<path style="fill:#272525;" d="M367.699,415.663h-36.702c-5.529,0-10.009-4.482-10.009-10.009v-43.308
		c0-5.529,4.482-10.009,10.009-10.009h36.702c5.529,0,10.009,4.482,10.009,10.009v43.308
		C377.709,411.183,373.227,415.663,367.699,415.663z"/>
</g>
<path style="fill:#C92F00;" d="M384,384H128V172.965C128,148.132,148.132,128,172.965,128h166.071
	C363.868,128,384,148.132,384,172.965V384z"/>
<path style="fill:#930000;" d="M384,172.965C384,148.132,363.868,128,339.035,128h-83.609v256H384V172.965z"/>
<path style="fill:#FFEDB5;" d="M128,328.164h46.611c16.453,0,29.793-13.527,29.793-30.215v-1.524H128V328.164z"/>
<path style="fill:#FFC61B;" d="M384,328.164h-46.611c-16.453,0-29.793-13.527-29.793-30.215v-1.524H384V328.164z"/>
<rect x="128" y="348.436" style="fill:#273B7A;" width="256" height="35.559"/>
<rect x="255.431" y="348.436" style="fill:#121149;" width="128.569" height="35.559"/>
<rect x="142.222" y="170.667" style="fill:#FFFFFF;" width="227.556" height="85.333"/>
<rect x="255.431" y="170.667" style="fill:#D0D1D3;" width="114.347" height="85.333"/>
<rect x="199.111" y="113.778" style="fill:#273B7A;" width="113.778" height="28.444"/>
<rect x="255.431" y="113.778" style="fill:#121149;" width="57.458" height="28.444"/>
<rect x="105.589" y="199.111" style="fill:#E09112;" width="28.444" height="56.889"/>
<rect x="377.966" y="199.111" style="fill:#FF5419;" width="28.444" height="56.889"/>
</svg>