<?xml version="1.0" encoding="UTF-8"?>
<svg xmlns="http://www.w3.org/2000/svg" xmlns:xlink="http://www.w3.org/1999/xlink" width="50px" height="50px" viewBox="0 0 50 50" version="1.1">
<g id="surface1">
<path style=" stroke:none;fill-rule:nonzero;fill:rgb(36.470588%,54.117647%,88.235294%);fill-opacity:1;" d="M 45.730469 15.910156 C 45.621094 14.378906 45.472656 12.851562 45.3125 11.695312 L 44.222656 3.957031 C 43.976562 2.21875 42.339844 0.796875 40.585938 0.796875 L 9.414062 0.796875 C 7.660156 0.796875 6.023438 2.21875 5.777344 3.957031 L 4.6875 11.695312 C 4.527344 12.851562 4.378906 14.378906 4.269531 15.910156 C 4.164062 17.445312 4.097656 18.992188 4.097656 20.164062 L 4.097656 21.859375 L 20.957031 40.851562 L 29.042969 40.851562 L 45.90625 21.859375 L 45.90625 20.164062 C 45.90625 18.992188 45.835938 17.445312 45.730469 15.910156 Z M 45.730469 15.910156 "/>
<path style=" stroke:none;fill-rule:nonzero;fill:rgb(52.156863%,77.254902%,100%);fill-opacity:1;" d="M 45.296875 11.695312 L 44.066406 3.957031 L 25 3.957031 L 25 15.910156 L 45.773438 15.910156 C 45.652344 14.378906 45.484375 12.851562 45.296875 11.695312 Z M 45.296875 11.695312 "/>
<path style=" stroke:none;fill-rule:nonzero;fill:rgb(100%,100%,100%);fill-opacity:1;" d="M 25 3.957031 L 6.042969 3.957031 L 4.816406 11.695312 C 4.628906 12.851562 4.464844 14.378906 4.34375 15.910156 L 25 15.910156 Z M 25 3.957031 "/>
<path style=" stroke:none;fill-rule:nonzero;fill:rgb(28.627451%,36.470588%,85.098039%);fill-opacity:1;" d="M 20.957031 38.722656 C 20.957031 38.722656 4.09375 40.851562 4.09375 40.851562 L 4.09375 21.859375 C 13.410156 21.859375 20.957031 29.410156 20.957031 38.722656 Z M 20.957031 38.722656 "/>
<path style=" stroke:none;fill-rule:nonzero;fill:rgb(28.627451%,36.470588%,85.098039%);fill-opacity:1;" d="M 45.90625 21.859375 L 45.90625 40.851562 L 29.042969 38.722656 C 29.042969 29.410156 36.589844 21.859375 45.90625 21.859375 Z M 45.90625 21.859375 "/>
<path style=" stroke:none;fill-rule:nonzero;fill:rgb(100%,84.705882%,23.921569%);fill-opacity:1;" d="M 42.179688 30.015625 C 42.179688 31.484375 40.988281 32.675781 39.519531 32.675781 C 38.050781 32.675781 36.863281 31.484375 36.863281 30.015625 C 36.863281 28.546875 38.050781 27.359375 39.519531 27.359375 C 40.988281 27.359375 42.179688 28.546875 42.179688 30.015625 Z M 42.179688 30.015625 "/>
<path style=" stroke:none;fill-rule:nonzero;fill:rgb(28.627451%,36.470588%,85.098039%);fill-opacity:1;" d="M 28.464844 24.390625 C 28.464844 26.304688 26.914062 27.855469 25 27.855469 C 23.085938 27.855469 21.535156 26.304688 21.535156 24.390625 C 21.535156 22.476562 23.085938 20.925781 25 20.925781 C 26.914062 20.925781 28.464844 22.476562 28.464844 24.390625 Z M 28.464844 24.390625 "/>
<path style=" stroke:none;fill-rule:nonzero;fill:rgb(42.745098%,70.588235%,96.078431%);fill-opacity:1;" d="M 25 28.652344 C 22.648438 28.652344 20.734375 26.742188 20.734375 24.390625 C 20.734375 22.039062 22.648438 20.125 25 20.125 C 27.351562 20.125 29.265625 22.039062 29.265625 24.390625 C 29.265625 26.742188 27.351562 28.652344 25 28.652344 Z M 25 21.722656 C 23.527344 21.722656 22.332031 22.917969 22.332031 24.390625 C 22.332031 25.863281 23.527344 27.058594 25 27.058594 C 26.472656 27.058594 27.667969 25.863281 27.667969 24.390625 C 27.667969 22.917969 26.472656 21.722656 25 21.722656 Z M 25 21.722656 "/>
<path style=" stroke:none;fill-rule:nonzero;fill:rgb(100%,84.705882%,23.921569%);fill-opacity:1;" d="M 13.136719 30.015625 C 13.136719 31.484375 11.949219 32.675781 10.480469 32.675781 C 9.011719 32.675781 7.820312 31.484375 7.820312 30.015625 C 7.820312 28.546875 9.011719 27.359375 10.480469 27.359375 C 11.949219 27.359375 13.136719 28.546875 13.136719 30.015625 Z M 13.136719 30.015625 "/>
<path style=" stroke:none;fill-rule:nonzero;fill:rgb(12.156863%,10.196078%,47.058824%);fill-opacity:1;" d="M 5.160156 43.722656 L 11.425781 43.722656 L 11.425781 49.203125 L 5.160156 49.203125 Z M 5.160156 43.722656 "/>
<path style=" stroke:none;fill-rule:nonzero;fill:rgb(12.156863%,10.196078%,47.058824%);fill-opacity:1;" d="M 38.574219 43.722656 L 44.839844 43.722656 L 44.839844 49.203125 L 38.574219 49.203125 Z M 38.574219 43.722656 "/>
<path style=" stroke:none;fill-rule:nonzero;fill:rgb(36.470588%,54.117647%,88.235294%);fill-opacity:1;" d="M 45.90625 38.722656 L 4.09375 38.722656 C 3.15625 38.722656 2.394531 39.484375 2.394531 40.425781 L 2.394531 42.019531 C 2.394531 42.960938 3.15625 43.722656 4.09375 43.722656 L 45.90625 43.722656 C 46.84375 43.722656 47.605469 42.960938 47.605469 42.019531 L 47.605469 40.425781 C 47.605469 39.484375 46.84375 38.722656 45.90625 38.722656 Z M 45.90625 38.722656 "/>
<path style=" stroke:none;fill-rule:nonzero;fill:rgb(0%,0%,0%);fill-opacity:1;" d="M 42.445312 30.015625 C 42.445312 28.402344 41.132812 27.089844 39.519531 27.089844 C 37.910156 27.089844 36.597656 28.402344 36.597656 30.015625 C 36.597656 31.628906 37.910156 32.941406 39.519531 32.941406 C 41.132812 32.941406 42.445312 31.628906 42.445312 30.015625 Z M 39.519531 31.347656 C 38.789062 31.347656 38.191406 30.75 38.191406 30.015625 C 38.191406 29.285156 38.789062 28.6875 39.519531 28.6875 C 40.253906 28.6875 40.851562 29.285156 40.851562 30.015625 C 40.851562 30.75 40.253906 31.347656 39.519531 31.347656 Z M 39.519531 31.347656 "/>
<path style=" stroke:none;fill-rule:nonzero;fill:rgb(0%,0%,0%);fill-opacity:1;" d="M 42.679688 16.707031 C 43.121094 16.707031 43.480469 16.347656 43.480469 15.910156 C 43.480469 15.46875 43.121094 15.109375 42.679688 15.109375 L 25.796875 15.109375 L 25.796875 7.148438 C 25.796875 6.710938 25.441406 6.351562 25 6.351562 C 24.558594 6.351562 24.203125 6.710938 24.203125 7.148438 L 24.203125 15.109375 L 7.320312 15.109375 C 6.878906 15.109375 6.519531 15.46875 6.519531 15.910156 C 6.519531 16.347656 6.878906 16.707031 7.320312 16.707031 Z M 42.679688 16.707031 "/>
<path style=" stroke:none;fill-rule:nonzero;fill:rgb(0%,0%,0%);fill-opacity:1;" d="M 25 20.125 C 22.648438 20.125 20.734375 22.039062 20.734375 24.390625 C 20.734375 26.742188 22.648438 28.652344 25 28.652344 C 27.351562 28.652344 29.265625 26.742188 29.265625 24.390625 C 29.265625 22.039062 27.351562 20.125 25 20.125 Z M 25 27.058594 C 23.527344 27.058594 22.332031 25.863281 22.332031 24.390625 C 22.332031 22.917969 23.527344 21.722656 25 21.722656 C 26.472656 21.722656 27.667969 22.917969 27.667969 24.390625 C 27.667969 25.863281 26.472656 27.058594 25 27.058594 Z M 25 27.058594 "/>
<path style=" stroke:none;fill-rule:nonzero;fill:rgb(0%,0%,0%);fill-opacity:1;" d="M 10.480469 27.089844 C 8.867188 27.089844 7.554688 28.402344 7.554688 30.015625 C 7.554688 31.628906 8.867188 32.941406 10.480469 32.941406 C 12.09375 32.941406 13.402344 31.628906 13.402344 30.015625 C 13.402344 28.402344 12.09375 27.089844 10.480469 27.089844 Z M 10.480469 31.347656 C 9.746094 31.347656 9.148438 30.75 9.148438 30.015625 C 9.148438 29.285156 9.746094 28.6875 10.480469 28.6875 C 11.210938 28.6875 11.808594 29.285156 11.808594 30.015625 C 11.808594 30.75 11.210938 31.347656 10.480469 31.347656 Z M 10.480469 31.347656 "/>
<path style=" stroke:none;fill-rule:nonzero;fill:rgb(0%,0%,0%);fill-opacity:1;" d="M 48.671875 15.109375 L 46.46875 15.109375 C 46.367188 13.816406 46.238281 12.570312 46.101562 11.582031 L 45.011719 3.847656 C 44.714844 1.726562 42.726562 0 40.585938 0 L 9.414062 0 C 7.273438 0 5.285156 1.726562 4.988281 3.847656 L 3.898438 11.582031 C 3.761719 12.570312 3.632812 13.816406 3.53125 15.109375 L 1.328125 15.109375 C 0.890625 15.109375 0.53125 15.46875 0.53125 15.910156 C 0.53125 16.347656 0.890625 16.707031 1.328125 16.707031 L 3.417969 16.707031 C 3.34375 17.96875 3.296875 19.191406 3.296875 20.164062 L 3.296875 38.058594 C 2.308594 38.390625 1.597656 39.324219 1.597656 40.425781 L 1.597656 42.019531 C 1.597656 43.398438 2.71875 44.519531 4.097656 44.519531 L 4.363281 44.519531 L 4.363281 49.203125 C 4.363281 49.644531 4.71875 50 5.160156 50 L 11.425781 50 C 11.867188 50 12.222656 49.644531 12.222656 49.203125 L 12.222656 46.914062 C 12.222656 46.472656 11.867188 46.117188 11.425781 46.117188 C 10.984375 46.117188 10.628906 46.472656 10.628906 46.914062 L 10.628906 48.402344 L 5.957031 48.402344 L 5.957031 44.519531 L 44.042969 44.519531 L 44.042969 48.402344 L 39.371094 48.402344 L 39.371094 46.914062 C 39.371094 46.472656 39.015625 46.117188 38.574219 46.117188 C 38.132812 46.117188 37.773438 46.472656 37.773438 46.914062 L 37.773438 49.203125 C 37.773438 49.644531 38.132812 50 38.574219 50 L 44.839844 50 C 45.28125 50 45.636719 49.644531 45.636719 49.203125 L 45.636719 44.519531 L 45.902344 44.519531 C 47.28125 44.519531 48.402344 43.398438 48.402344 42.019531 L 48.402344 40.425781 C 48.402344 39.324219 47.691406 38.390625 46.703125 38.058594 L 46.703125 20.164062 C 46.703125 19.191406 46.65625 17.96875 46.582031 16.707031 L 48.671875 16.707031 C 49.109375 16.707031 49.46875 16.347656 49.46875 15.910156 C 49.46875 15.46875 49.109375 15.109375 48.671875 15.109375 Z M 9.414062 1.59375 L 40.585938 1.59375 C 41.617188 1.59375 42.617188 2.253906 43.121094 3.160156 L 6.878906 3.160156 C 7.382812 2.253906 8.382812 1.59375 9.414062 1.59375 Z M 3.191406 42.019531 L 3.191406 40.425781 C 3.191406 39.925781 3.597656 39.519531 4.097656 39.519531 L 11.808594 39.519531 L 11.808594 42.925781 L 4.09375 42.925781 C 3.597656 42.925781 3.191406 42.519531 3.191406 42.019531 Z M 46.808594 42.019531 C 46.808594 42.519531 46.402344 42.925781 45.902344 42.925781 L 38.191406 42.925781 L 38.191406 35.957031 C 38.191406 35.515625 37.835938 35.160156 37.394531 35.160156 C 36.953125 35.160156 36.59375 35.515625 36.59375 35.957031 L 36.59375 37.925781 L 15.796875 37.925781 C 15.355469 37.925781 15 38.28125 15 38.722656 C 15 39.164062 15.355469 39.519531 15.796875 39.519531 L 36.59375 39.519531 L 36.59375 42.925781 L 13.40625 42.925781 L 13.40625 35.957031 C 13.40625 35.515625 13.046875 35.160156 12.605469 35.160156 C 12.164062 35.160156 11.808594 35.515625 11.808594 35.957031 L 11.808594 37.925781 L 4.894531 37.925781 L 4.894531 22.679688 C 12.15625 23.042969 18.371094 28.3125 19.835938 35.484375 C 19.910156 35.859375 20.242188 36.121094 20.617188 36.121094 C 20.667969 36.121094 20.722656 36.117188 20.777344 36.105469 C 21.207031 36.015625 21.484375 35.59375 21.398438 35.164062 C 20.59375 31.234375 18.441406 27.65625 15.332031 25.09375 C 12.386719 22.664062 8.707031 21.253906 4.894531 21.082031 L 4.894531 20.164062 C 4.894531 17.847656 5.15625 14.097656 5.480469 11.804688 L 6.472656 4.757812 L 43.527344 4.757812 L 44.519531 11.804688 C 44.84375 14.097656 45.105469 17.847656 45.105469 20.164062 L 45.105469 21.082031 C 41.292969 21.253906 37.613281 22.664062 34.667969 25.09375 C 31.558594 27.65625 29.40625 31.234375 28.601562 35.164062 C 28.515625 35.59375 28.792969 36.015625 29.222656 36.105469 C 29.277344 36.117188 29.332031 36.121094 29.382812 36.121094 C 29.753906 36.121094 30.089844 35.859375 30.164062 35.484375 C 31.628906 28.3125 37.84375 23.042969 45.105469 22.679688 L 45.105469 37.925781 L 40.585938 37.925781 C 40.144531 37.925781 39.789062 38.28125 39.789062 38.722656 C 39.789062 39.164062 40.144531 39.519531 40.585938 39.519531 L 45.902344 39.519531 C 46.402344 39.519531 46.808594 39.925781 46.808594 40.425781 Z M 46.808594 42.019531 "/>
</g>
</svg>
